<?xml version="1.0" ?><svg height="600mm" id="svg4658" version="1.1" viewBox="0 0 2125.9843 2125.9842" width="600mm" xmlns="http://www.w3.org/2000/svg" xmlns:cc="http://creativecommons.org/ns#" xmlns:dc="http://purl.org/dc/elements/1.1/" xmlns:inkscape="http://www.inkscape.org/namespaces/inkscape" xmlns:rdf="http://www.w3.org/1999/02/22-rdf-syntax-ns#" xmlns:sodipodi="http://sodipodi.sourceforge.net/DTD/sodipodi-0.dtd" xmlns:svg="http://www.w3.org/2000/svg"><defs id="defs4660"/><g id="layer1" transform="translate(0,1073.6222)"><path d="m 1922.7072,-404.97495 z m 0,0 0,1070.76928 c 0,73.45162 -58.061,132.58631 -130.1828,132.58631 l -1639.47162,0 820.98467,-511.27253 z" id="path5017" style="opacity:1;fill:#eeede9;fill-opacity:1;stroke:none;stroke-width:1;stroke-miterlimit:4;stroke-dasharray:none;stroke-opacity:1"/><path d="m 22.029328,-408.61456 z m 0,0 0,1070.76941 c 0,73.45162 58.060972,132.58629 130.182842,132.58629 l 1639.47143,0 -820.98463,-511.27251 z" id="path5019" style="opacity:1;fill:#e9e7e0;fill-opacity:1;stroke:none;stroke-width:1;stroke-miterlimit:4;stroke-dasharray:none;stroke-opacity:1"/><path d="m 153.35977,-547.21965 1639.47283,0 c 72.1219,0 130.184,69.01307 130.184,154.73764 0,0 -558.7095,525.63577 -894.3642,701.30667 -17.5571,9.18871 -36.98935,17.39032 -56.80506,17.5307 -20.08527,0.14216 -39.97309,-7.7438 -57.82379,-16.952 C 578.0472,136.09176 23.175784,-392.48201 23.175784,-392.48201 c 0,-85.72457 58.06212,-154.73764 130.183986,-154.73764 z" id="path5021" style="opacity:1;fill:#e0ddd4;fill-opacity:1;stroke:none;stroke-width:1;stroke-miterlimit:4;stroke-dasharray:none;stroke-opacity:1"/></g><g id="layer2"><circle cx="1780.8065" cy="-456.80579" id="circle5045" r="339.70789" style="display:inline;opacity:1;fill:#ef2929;fill-opacity:1;stroke:none;stroke-width:20;stroke-miterlimit:4;stroke-dasharray:none;stroke-opacity:0.63372091" transform="translate(0,1073.6222)"/><path d="m 1778.3934,-702.68361 c -24.198,0 -45.7525,17.09403 -58.3305,36.21373 -18.3838,27.94472 -15.374,65.7984 -14.8555,99.24382 0.8565,55.24183 8.6469,112.23992 29.6066,163.07923 11.7609,28.5274 22.5362,54.6364 46.1476,54.55105 20.8761,-0.0752 35.0823,-30.6882 42.0092,-53.44625 16.7084,-54.89509 32.9731,-106.89858 33.7436,-164.18403 0.4822,-35.84151 1.6179,-76.9915 -19.8675,-105.68346 -13.107,-17.50307 -35.6346,-29.77409 -58.4535,-29.77409 z m 3.8516,396.74167 a 47.506345,47.506345 0 0 0 -47.5067,47.50684 47.506345,47.506345 0 0 0 47.5067,47.5067 47.506345,47.506345 0 0 0 47.5068,-47.5067 47.506345,47.506345 0 0 0 -47.5068,-47.50684 z" id="path5047" style="display:inline;opacity:1;fill:#ffffff;fill-opacity:1;stroke:none;stroke-width:20;stroke-miterlimit:4;stroke-dasharray:none;stroke-opacity:0.63372091" transform="translate(0,1073.6222)"/></g></svg>